<?xml version="1.0" encoding="UTF-8"?><svg xmlns="http://www.w3.org/2000/svg" viewBox="0 0 447.24 182.05"><defs><style>.b{fill:#231f20;}.c{fill:#ffde17;}.c,.d,.e{mix-blend-mode:multiply;stroke:#231f20;stroke-miterlimit:10;stroke-width:3px;}.d{fill:#ec008c;}.e{fill:#00aeef;}.f{isolation:isolate;}</style></defs><g class="f"><g id="a"><g><circle class="c" cx="73.11" cy="79.94" r="32.26"/><circle class="d" cx="33.76" cy="79.94" r="32.26"/><circle class="e" cx="52.76" cy="44.68" r="32.26"/></g><g><path class="b" d="M122.46,25.49V14.53h10.9v10.96h-10.9Zm0,14.53h10.9V105.47h-10.9V40.02Z"/><path class="b" d="M196.11,40.02h10.9v90.88h-10.9v-36.8c-2.29,3.87-4.46,6.6-6.51,8.2-2.05,1.6-4.39,2.83-7.01,3.69s-5.31,1.29-8.08,1.29c-5.01,0-9.6-1.36-13.79-4.07-4.18-2.71-7.43-6.77-9.76-12.16s-3.49-11.44-3.49-18.16c0-9.96,2.42-18.23,7.28-24.81,4.85-6.58,11.62-9.87,20.29-9.87,2.84,0,5.5,.4,7.99,1.2,2.48,.8,4.7,1.99,6.66,3.57,1.95,1.58,4.09,4.4,6.42,8.47v-11.43Zm0,32.69c0-7.42-1.62-13.51-4.87-18.28-3.24-4.77-7.79-7.15-13.65-7.15-5.38,0-9.85,2.11-13.41,6.33s-5.34,10.53-5.34,18.93c0,9.81,1.88,16.61,5.64,20.42,3.76,3.81,8.03,5.71,12.82,5.71,3.52,0,6.79-1.05,9.82-3.16,3.03-2.11,5.28-5.21,6.76-9.32s2.23-8.59,2.23-13.48Z"/><path class="b" d="M234.25,105.47h-11.37V10.9h11.37v60.29l29.03-31.17h12.6l-28.48,30.58,29.53,34.87h-13.65l-29.03-34.28v34.28Z"/><path class="b" d="M298.36,105.47h-10.9V40.02h10.9v11.84c2.23-3.94,4.34-6.78,6.36-8.5,2.01-1.72,4.21-3.01,6.59-3.87,2.38-.86,4.92-1.29,7.62-1.29s5.27,.42,7.73,1.26c2.46,.84,4.59,2.1,6.39,3.78,1.8,1.68,3.57,4.55,5.33,8.61,2.23-3.79,4.42-6.57,6.59-8.35,2.17-1.78,4.39-3.11,6.68-3.98s4.72-1.32,7.29-1.32c3.71,0,7.07,.87,10.08,2.61,3.01,1.74,5.32,4.21,6.94,7.41,1.62,3.2,2.43,8.65,2.43,16.35v40.9h-10.9v-36.39c0-7.69-.46-12.56-1.38-14.59-.92-2.03-2.19-3.58-3.82-4.66-1.62-1.07-3.59-1.61-5.9-1.61-3.25,0-6.24,1.01-8.98,3.02-2.74,2.01-4.93,4.72-6.58,8.12-1.64,3.4-2.47,8.16-2.47,14.3v31.82h-10.9v-36.35c0-7.69-.42-12.55-1.26-14.58-.84-2.03-2.18-3.59-4.01-4.68-1.84-1.09-3.81-1.64-5.92-1.64-2.97,0-5.89,1.04-8.76,3.11-2.87,2.07-5.12,4.83-6.74,8.29-1.62,3.46-2.43,8.14-2.43,14.03v31.82Z"/><path class="b" d="M390.7,88.18h10.9v.23c0,2.81,1.07,5.15,3.2,7,2.13,1.86,5.73,2.78,10.81,2.78,4.46,0,8.07-1.09,10.84-3.28,2.77-2.19,4.16-4.76,4.16-7.73,0-4.02-2.72-6.87-8.15-8.55l-5.53-1.7-3.67-1.17-7.51-2.34c-8.58-3.16-12.87-8.42-12.87-15.76,0-5.16,2.08-9.69,6.24-13.59,4.16-3.91,10.34-5.86,18.54-5.86s13.84,1.67,17.26,5.01c3.42,3.34,5.13,7.04,5.13,11.1v.23h-10.96v-.23c0-2.19-1.09-3.91-3.28-5.16-2.19-1.25-5.1-1.88-8.74-1.88-4.34,0-7.65,.91-9.96,2.72-2.3,1.82-3.45,4.05-3.45,6.71,0,2.03,.75,3.68,2.24,4.95,1.49,1.27,4.01,2.41,7.54,3.43l5.24,1.46,3.79,1.11c5.28,1.52,8.57,2.6,9.87,3.22,1.3,.63,2.61,1.43,3.93,2.4,1.82,1.41,3.17,3.11,4.05,5.1,.87,1.99,1.31,4.32,1.31,6.97,0,6.17-2.21,11.37-6.62,15.59s-10.86,6.33-19.33,6.33c-5.37,0-9.82-.8-13.36-2.4-3.54-1.6-6.36-3.82-8.46-6.65-2.1-2.83-3.15-6.1-3.15-9.81v-.23Z"/></g></g></g></svg>