<?xml version="1.0" encoding="UTF-8"?><svg xmlns="http://www.w3.org/2000/svg" viewBox="0 0 183.62 183.08"><defs><style>.b{fill:#231f20;}.c{fill:#ffde17;}.c,.d,.e{mix-blend-mode:multiply;stroke:#231f20;stroke-miterlimit:10;stroke-width:3px;}.d{fill:#ec008c;}.e{fill:#00aeef;}.f{isolation:isolate;}</style></defs><g class="f"><g id="a"><g><circle class="c" cx="110.51" cy="85.07" r="32.26"/><circle class="d" cx="71.15" cy="85.07" r="32.26"/><circle class="e" cx="90.15" cy="49.81" r="32.26"/></g><g><path class="b" d="M31.32,129.94v-4.57h4.54v4.57h-4.54Zm0,6.05h4.54v27.27h-4.54v-27.27Z"/><path class="b" d="M62.01,136h4.54v37.87h-4.54v-15.33c-.95,1.61-1.86,2.75-2.71,3.42-.85,.67-1.83,1.18-2.92,1.54-1.09,.36-2.21,.54-3.37,.54-2.09,0-4-.57-5.74-1.7-1.74-1.13-3.1-2.82-4.07-5.07-.97-2.25-1.45-4.77-1.45-7.57,0-4.15,1.01-7.6,3.03-10.34,2.02-2.74,4.84-4.11,8.46-4.11,1.18,0,2.29,.17,3.33,.5,1.04,.33,1.96,.83,2.77,1.49,.81,.66,1.71,1.84,2.68,3.53v-4.76Zm0,13.62c0-3.09-.68-5.63-2.03-7.62-1.35-1.99-3.25-2.98-5.69-2.98-2.24,0-4.1,.88-5.59,2.64s-2.22,4.39-2.22,7.89c0,4.09,.78,6.92,2.35,8.51,1.57,1.59,3.35,2.38,5.34,2.38,1.47,0,2.83-.44,4.09-1.32,1.26-.88,2.2-2.17,2.82-3.88s.93-3.58,.93-5.62Z"/><path class="b" d="M77.9,163.27h-4.74v-39.4h4.74v25.12l12.1-12.99h5.25l-11.87,12.74,12.31,14.53h-5.69l-12.1-14.28v14.28Z"/><path class="b" d="M104.61,163.27h-4.54v-27.27h4.54v4.93c.93-1.64,1.81-2.82,2.65-3.54,.84-.72,1.75-1.25,2.75-1.61,.99-.36,2.05-.54,3.17-.54s2.2,.17,3.22,.52c1.03,.35,1.91,.88,2.66,1.58,.75,.7,1.49,1.9,2.22,3.59,.93-1.58,1.84-2.74,2.75-3.48,.9-.74,1.83-1.29,2.78-1.66,.95-.37,1.97-.55,3.04-.55,1.55,0,2.95,.36,4.2,1.09,1.25,.72,2.22,1.75,2.89,3.09,.67,1.33,1.01,3.61,1.01,6.81v17.04h-4.54v-15.16c0-3.21-.19-5.23-.58-6.08-.38-.85-.91-1.49-1.59-1.94-.68-.45-1.5-.67-2.46-.67-1.35,0-2.6,.42-3.74,1.26-1.14,.84-2.05,1.97-2.74,3.38s-1.03,3.4-1.03,5.96v13.26h-4.54v-15.15c0-3.2-.17-5.23-.53-6.07-.35-.85-.91-1.5-1.67-1.95-.77-.46-1.59-.68-2.47-.68-1.24,0-2.45,.43-3.65,1.29-1.2,.86-2.13,2.01-2.81,3.45-.67,1.44-1.01,3.39-1.01,5.85v13.26Z"/><path class="b" d="M143.09,156.07h4.54v.1c0,1.17,.44,2.14,1.33,2.92,.89,.77,2.39,1.16,4.5,1.16,1.86,0,3.36-.46,4.52-1.37,1.15-.91,1.73-1.99,1.73-3.22,0-1.68-1.13-2.86-3.4-3.56l-2.3-.71-1.53-.49-3.13-.98c-3.58-1.32-5.36-3.51-5.36-6.57,0-2.15,.87-4.04,2.6-5.66,1.73-1.63,4.31-2.44,7.73-2.44s5.77,.7,7.19,2.09,2.14,2.93,2.14,4.63v.1h-4.57v-.1c0-.91-.46-1.63-1.37-2.15s-2.12-.78-3.64-.78c-1.81,0-3.19,.38-4.15,1.13-.96,.76-1.44,1.69-1.44,2.8,0,.85,.31,1.53,.93,2.06,.62,.53,1.67,1.01,3.14,1.43l2.18,.61,1.58,.46c2.2,.63,3.57,1.08,4.11,1.34s1.09,.59,1.64,1c.76,.59,1.32,1.29,1.69,2.12s.55,1.8,.55,2.91c0,2.57-.92,4.74-2.76,6.49-1.84,1.76-4.52,2.64-8.06,2.64-2.24,0-4.09-.33-5.57-1s-2.65-1.59-3.52-2.77c-.88-1.18-1.31-2.54-1.31-4.09v-.1Z"/></g></g></g></svg>